<svg xmlns="http://www.w3.org/2000/svg" viewBox="0 0 3840 2160" width="3840" height="2160">
  <!-- Sky background -->
  <rect x="0" y="0" width="3840" height="1200" fill="#87CEEB" />
  
  <!-- Sun -->
  <circle cx="1000" cy="300" r="150" fill="#FFD700" stroke="#FF8C00" stroke-width="10" />
  <path d="M 1000 120 L 1000 50" stroke="#FF8C00" stroke-width="10" stroke-linecap="round" />
  <path d="M 1000 550 L 1000 480" stroke="#FF8C00" stroke-width="10" stroke-linecap="round" />
  <path d="M 820 300 L 750 300" stroke="#FF8C00" stroke-width="10" stroke-linecap="round" />
  <path d="M 1250 300 L 1180 300" stroke="#FF8C00" stroke-width="10" stroke-linecap="round" />
  <path d="M 880 180 L 830 130" stroke="#FF8C00" stroke-width="10" stroke-linecap="round" />
  <path d="M 1170 470 L 1120 420" stroke="#FF8C00" stroke-width="10" stroke-linecap="round" />
  <path d="M 880 420 L 830 470" stroke="#FF8C00" stroke-width="10" stroke-linecap="round" />
  <path d="M 1170 180 L 1120 130" stroke="#FF8C00" stroke-width="10" stroke-linecap="round" />
  
  <!-- Ground/Soil -->
  <rect x="0" y="1200" width="3840" height="960" fill="#8B4513" />
  <path d="M 0 1200 C 300 1150, 600 1250, 900 1190 C 1200 1130, 1500 1220, 1800 1170 C 2100 1120, 2400 1210, 2700 1160 C 3000 1110, 3300 1200, 3600 1150 L 3840 1200" fill="#A0522D" />
  
  <!-- Taller stem -->
  <path d="M 1920 1400 C 1925 1300, 1925 1200, 1930 1100 C 1935 1000, 1940 900, 1935 800 C 1930 700, 1920 600, 1915 500" stroke="#228B22" stroke-width="25" fill="none" />
  
  <!-- First pair of full-size leaves -->
  <path d="M 1925 1200 C 1800 1120, 1680 1080, 1600 1100" stroke="#228B22" stroke-width="18" fill="none" />
  <path d="M 1915 1200 C 2040 1120, 2160 1080, 2240 1100" stroke="#228B22" stroke-width="18" fill="none" />
  
  <!-- Vein details on leaves -->
  <path d="M 1800 1120 C 1750 1110, 1700 1105, 1650 1110" stroke="#006400" stroke-width="6" fill="none" />
  <path d="M 1750 1130 C 1720 1120, 1690 1115, 1670 1120" stroke="#006400" stroke-width="4" fill="none" />
  <path d="M 1850 1140 C 1820 1130, 1790 1125, 1770 1130" stroke="#006400" stroke-width="4" fill="none" />
  
  <path d="M 2040 1120 C 2090 1110, 2140 1105, 2190 1110" stroke="#006400" stroke-width="6" fill="none" />
  <path d="M 2090 1130 C 2120 1120, 2150 1115, 2170 1120" stroke="#006400" stroke-width="4" fill="none" />
  <path d="M 1990 1140 C 2020 1130, 2050 1125, 2070 1130" stroke="#006400" stroke-width="4" fill="none" />
  
  <!-- Second pair of leaves -->
  <path d="M 1930 950 C 1820 900, 1720 880, 1670 900" stroke="#228B22" stroke-width="18" fill="none" />
  <path d="M 1910 950 C 2020 900, 2120 880, 2170 900" stroke="#228B22" stroke-width="18" fill="none" />
  
  <!-- Third pair of leaves -->
  <path d="M 1925 750 C 1830 710, 1750 700, 1710 720" stroke="#228B22" stroke-width="15" fill="none" />
  <path d="M 1915 750 C 2010 710, 2090 700, 2130 720" stroke="#228B22" stroke-width="15" fill="none" />
  
  <!-- Small fourth pair of developing leaves -->
  <path d="M 1920 650 C 1870 620, 1840 615, 1830 620" stroke="#228B22" stroke-width="12" fill="none" />
  <path d="M 1920 650 C 1970 620, 2000 615, 2010 620" stroke="#228B22" stroke-width="12" fill="none" />
  
  <!-- Small flower bud forming -->
  <circle cx="1915" cy="480" r="40" fill="#3A5F0B" />
  <circle cx="1915" cy="480" r="20" fill="#556B2F" />
  
  <!-- Soil lines/texture -->
  <path d="M 1700 1250 C 1750 1280, 1800 1270, 1850 1290" stroke="#6B3C10" stroke-width="5" fill="none" />
  <path d="M 1860 1340 C 1900 1360, 1950 1350, 2000 1380" stroke="#6B3C10" stroke-width="5" fill="none" />
  <path d="M 1800 1400 C 1850 1420, 1900 1410, 1950 1430" stroke="#6B3C10" stroke-width="5" fill="none" />
  <path d="M 1980 1270 C 2030 1290, 2080 1280, 2130 1300" stroke="#6B3C10" stroke-width="5" fill="none" />
  <path d="M 1750 1350 C 1800 1370, 1850 1360, 1900 1380" stroke="#6B3C10" stroke-width="5" fill="none" />
  
  <!-- Small grass blades in background -->
  <path d="M 800 1200 C 810 1150, 820 1170, 830 1130" stroke="#006400" stroke-width="8" fill="none" />
  <path d="M 850 1200 C 870 1160, 865 1140, 880 1120" stroke="#006400" stroke-width="8" fill="none" />
  <path d="M 2800 1200 C 2810 1150, 2820 1170, 2830 1130" stroke="#006400" stroke-width="8" fill="none" />
  <path d="M 2850 1200 C 2870 1160, 2865 1140, 2880 1120" stroke="#006400" stroke-width="8" fill="none" />
  <path d="M 3200 1200 C 3220 1150, 3210 1170, 3230 1120" stroke="#006400" stroke-width="8" fill="none" />
</svg>
