<svg xmlns="http://www.w3.org/2000/svg" viewBox="0 0 3840 2160" width="3840" height="2160">
  <!-- Sky background -->
  <rect x="0" y="0" width="3840" height="1200" fill="#87CEEB" />
  
  <!-- Sun -->
  <circle cx="1300" cy="300" r="150" fill="#FFD700" stroke="#FF8C00" stroke-width="10" />
  <path d="M 1300 120 L 1300 50" stroke="#FF8C00" stroke-width="10" stroke-linecap="round" />
  <path d="M 1300 550 L 1300 480" stroke="#FF8C00" stroke-width="10" stroke-linecap="round" />
  <path d="M 1120 300 L 1050 300" stroke="#FF8C00" stroke-width="10" stroke-linecap="round" />
  <path d="M 1550 300 L 1480 300" stroke="#FF8C00" stroke-width="10" stroke-linecap="round" />
  <path d="M 1180 180 L 1130 130" stroke="#FF8C00" stroke-width="10" stroke-linecap="round" />
  <path d="M 1470 470 L 1420 420" stroke="#FF8C00" stroke-width="10" stroke-linecap="round" />
  <path d="M 1180 420 L 1130 470" stroke="#FF8C00" stroke-width="10" stroke-linecap="round" />
  <path d="M 1470 180 L 1420 130" stroke="#FF8C00" stroke-width="10" stroke-linecap="round" />
  
  <!-- Ground/Soil -->
  <rect x="0" y="1200" width="3840" height="960" fill="#8B4513" />
  <path d="M 0 1200 C 300 1150, 600 1250, 900 1190 C 1200 1130, 1500 1220, 1800 1170 C 2100 1120, 2400 1210, 2700 1160 C 3000 1110, 3300 1200, 3600 1150 L 3840 1200" fill="#A0522D" />
  
  <!-- Mature stem slightly bending with weight -->
  <path d="M 1920 1400 C 1925 1300, 1925 1200, 1930 1100 C 1935 1000, 1940 900, 1935 800 C 1930 700, 1920 600, 1900 500 C 1885 400, 1875 300, 1860 230" stroke="#228B22" stroke-width="30" fill="none" />
  
  <!-- Full-size leaves with slight wilting on lower leaves -->
  <path d="M 1925 1200 C 1780 1110, 1650 1070, 1540 1100" stroke="#228B22" stroke-width="20" fill="none" />
  <path d="M 1915 1200 C 2060 1110, 2190 1070, 2300 1100" stroke="#228B22" stroke-width="20" fill="none" />
  
  <!-- Vein details on leaves -->
  <path d="M 1780 1110 C 1720 1090, 1660 1080, 1600 1100" stroke="#006400" stroke-width="8" fill="none" />
  <path d="M 2060 1110 C 2120 1090, 2180 1080, 2240 1100" stroke="#006400" stroke-width="8" fill="none" />
  
  <!-- Second pair of leaves -->
  <path d="M 1930 950 C 1800 890, 1680 860, 1600 900" stroke="#228B22" stroke-width="20" fill="none" />
  <path d="M 1910 950 C 2040 890, 2160 860, 2240 900" stroke="#228B22" stroke-width="20" fill="none" />
  
  <!-- Third pair of leaves -->
  <path d="M 1925 750 C 1820 710, 1720 690, 1670 710" stroke="#228B22" stroke-width="18" fill="none" />
  <path d="M 1915 750 C 2020 710, 2120 690, 2170 710" stroke="#228B22" stroke-width="18" fill="none" />
  
  <!-- Fourth pair of leaves -->
  <path d="M 1920 600 C 1850 570, 1790 560, 1760 570" stroke="#228B22" stroke-width="15" fill="none" />
  <path d="M 1920 600 C 1990 570, 2050 560, 2080 570" stroke="#228B22" stroke-width="15" fill="none" />
  
  <!-- Fifth pair of leaves -->
  <path d="M 1900 450 C 1860 430, 1830 425, 1810 430" stroke="#228B22" stroke-width="12" fill="none" />
  <path d="M 1900 450 C 1940 430, 1970 425, 1990 430" stroke="#228B22" stroke-width="12" fill="none" />
  
  <!-- Small leafy bracts under flower -->
  <path d="M 1860 300 C 1830 290, 1810 280, 1800 270" stroke="#228B22" stroke-width="10" fill="none" />
  <path d="M 1860 300 C 1830 310, 1810 320, 1800 330" stroke="#228B22" stroke-width="10" fill="none" />
  <path d="M 1840 260 C 1830 240, 1820 220, 1810 210" stroke="#228B22" stroke-width="8" fill="none" />
  
  <path d="M 1860 260 C 1840 240, 1830 220, 1820 200" stroke="#3A5F0B" stroke-width="8" fill="none" />
  <path d="M 1880 240 C 1870 220, 1865 200, 1860 180" stroke="#3A5F0B" stroke-width="8" fill="none" />
  
  <!-- Mirror the small bracts -->
  <path d="M 1860 300 C 1890 290, 1910 280, 1920 270" stroke="#228B22" stroke-width="10" fill="none" />
  <path d="M 1860 300 C 1890 310, 1910 320, 1920 330" stroke="#228B22" stroke-width="10" fill="none" />
  <path d="M 1880 260 C 1890 240, 1900 220, 1910 210" stroke="#228B22" stroke-width="8" fill="none" />
  
  <path d="M 1860 260 C 1880 240, 1890 220, 1900 200" stroke="#3A5F0B" stroke-width="8" fill="none" />
  <path d="M 1840 240 C 1850 220, 1855 200, 1860 180" stroke="#3A5F0B" stroke-width="8" fill="none" />
  
  <!-- Partially open flower -->
  <!-- Outer petals -->
  <path d="M 1760 220 C 1750 180, 1760 140, 1790 120" stroke="#FFD700" stroke-width="25" stroke-linecap="round" fill="none" />
  <path d="M 1790 180 C 1780 130, 1790 100, 1820 80" stroke="#FFD700" stroke-width="25" stroke-linecap="round" fill="none" />
  <path d="M 1830 160 C 1820 110, 1830 80, 1860 60" stroke="#FFD700" stroke-width="25" stroke-linecap="round" fill="none" />
  
  <path d="M 1960 220 C 1970 180, 1960 140, 1930 120" stroke="#FFD700" stroke-width="25" stroke-linecap="round" fill="none" />
  <path d="M 1930 180 C 1940 130, 1930 100, 1900 80" stroke="#FFD700" stroke-width="25" stroke-linecap="round" fill="none" />
  <path d="M 1890 160 C 1900 110, 1890 80, 1860 60" stroke="#FFD700" stroke-width="25" stroke-linecap="round" fill="none" />
  
  <path d="M 1810 240 C 1770 230, 1740 210, 1720 180" stroke="#FFD700" stroke-width="25" stroke-linecap="round" fill="none" />
  <path d="M 1910 240 C 1950 230, 1980 210, 2000 180" stroke="#FFD700" stroke-width="25" stroke-linecap="round" fill="none" />
  
  <!-- Middle petals -->
  <path d="M 1780 200 C 1760 170, 1750 150, 1770 130" stroke="#FFD700" stroke-width="25" stroke-linecap="round" fill="none" />
  <path d="M 1820 180 C 1810 150, 1800 130, 1820 110" stroke="#FFD700" stroke-width="25" stroke-linecap="round" fill="none" />
  
  <path d="M 1940 200 C 1960 170, 1970 150, 1950 130" stroke="#FFD700" stroke-width="25" stroke-linecap="round" fill="none" />
  <path d="M 1900 180 C 1910 150, 1920 130, 1900 110" stroke="#FFD700" stroke-width="25" stroke-linecap="round" fill="none" />
  
  <!-- Brown disk florets in center -->
  <circle cx="1860" cy="230" r="50" fill="#8B4513" />
  <circle cx="1860" cy="230" r="40" fill="#654321" />
  <path d="M 1835 210 C 1845 205, 1855 205, 1865 210" stroke="#8B4513" stroke-width="2" fill="none" />
  <path d="M 1845 220 C 1855 215, 1865 215, 1875 220" stroke="#8B4513" stroke-width="2" fill="none" />
  <path d="M 1840 230 C 1850 225, 1860 225, 1870 230" stroke="#8B4513" stroke-width="2" fill="none" />
  
  <!-- Soil lines/texture -->
  <path d="M 1700 1250 C 1750 1280, 1800 1270, 1850 1290" stroke="#6B3C10" stroke-width="5" fill="none" />
  <path d="M 1860 1340 C 1900 1360, 1950 1350, 2000 1380" stroke="#6B3C10" stroke-width="5" fill="none" />
  <path d="M 1800 1400 C 1850 1420, 1900 1410, 1950 1430" stroke="#6B3C10" stroke-width="5" fill="none" />
  <path d="M 1980 1270 C 2030 1290, 2080 1280, 2130 1300" stroke="#6B3C10" stroke-width="5" fill="none" />
  <path d="M 1750 1350 C 1800 1370, 1850 1360, 1900 1380" stroke="#6B3C10" stroke-width="5" fill="none" />
  
  <!-- Small grass blades in background -->
  <path d="M 800 1200 C 810 1150, 820 1170, 830 1130" stroke="#006400" stroke-width="8" fill="none" />
  <path d="M 850 1200 C 870 1160, 865 1140, 880 1120" stroke="#006400" stroke-width="8" fill="none" />
  <path d="M 2800 1200 C 2810 1150, 2820 1170, 2830 1130" stroke="#006400" stroke-width="8" fill="none" />
  <path d="M 2850 1200 C 2870 1160, 2865 1140, 2880 1120" stroke="#006400" stroke-width="8" fill="none" />
  <path d="M 3200 1200 C 3220 1150, 3210 1170, 3230 1120" stroke="#006400" stroke-width="8" fill="none" />
</svg>
