<svg xmlns="http://www.w3.org/2000/svg" viewBox="0 0 3840 2160" width="3840" height="2160">
  <!-- Sky background -->
  <rect x="0" y="0" width="3840" height="1200" fill="#87CEEB" />
  
  <!-- Sun -->
  <circle cx="900" cy="300" r="150" fill="#FFD700" stroke="#FF8C00" stroke-width="10" />
  <path d="M 900 120 L 900 50" stroke="#FF8C00" stroke-width="10" stroke-linecap="round" />
  <path d="M 900 550 L 900 480" stroke="#FF8C00" stroke-width="10" stroke-linecap="round" />
  <path d="M 720 300 L 650 300" stroke="#FF8C00" stroke-width="10" stroke-linecap="round" />
  <path d="M 1150 300 L 1080 300" stroke="#FF8C00" stroke-width="10" stroke-linecap="round" />
  <path d="M 780 180 L 730 130" stroke="#FF8C00" stroke-width="10" stroke-linecap="round" />
  <path d="M 1070 470 L 1020 420" stroke="#FF8C00" stroke-width="10" stroke-linecap="round" />
  <path d="M 780 420 L 730 470" stroke="#FF8C00" stroke-width="10" stroke-linecap="round" />
  <path d="M 1070 180 L 1020 130" stroke="#FF8C00" stroke-width="10" stroke-linecap="round" />
  
  <!-- Ground/Soil -->
  <rect x="0" y="1200" width="3840" height="960" fill="#8B4513" />
  <path d="M 0 1200 C 300 1150, 600 1250, 900 1190 C 1200 1130, 1500 1220, 1800 1170 C 2100 1120, 2400 1210, 2700 1160 C 3000 1110, 3300 1200, 3600 1150 L 3840 1200" fill="#A0522D" />
  
  <!-- Taller stem -->
  <path d="M 1920 1400 C 1925 1300, 1925 1200, 1930 1100 C 1935 1000, 1930 900, 1920 800" stroke="#228B22" stroke-width="20" fill="none" />
  
  <!-- First pair of bigger leaves -->
  <path d="M 1925 1200 C 1840 1150, 1760 1130, 1720 1140" stroke="#228B22" stroke-width="15" fill="none" />
  <path d="M 1915 1200 C 2000 1150, 2080 1130, 2120 1140" stroke="#228B22" stroke-width="15" fill="none" />
  <path d="M 1760 1140 C 1720 1150, 1700 1160, 1690 1170" stroke="#228B22" stroke-width="10" fill="none" />
  <path d="M 2080 1140 C 2120 1150, 2140 1160, 2150 1170" stroke="#228B22" stroke-width="10" fill="none" />
  
  <!-- Second pair of leaves -->
  <path d="M 1930 1000 C 1860 970, 1800 960, 1770 970" stroke="#228B22" stroke-width="15" fill="none" />
  <path d="M 1910 1000 C 1980 970, 2040 960, 2070 970" stroke="#228B22" stroke-width="15" fill="none" />
  <path d="M 1800 970 C 1770 980, 1750 990, 1740 1000" stroke="#228B22" stroke-width="10" fill="none" />
  <path d="M 2040 970 C 2070 980, 2090 990, 2100 1000" stroke="#228B22" stroke-width="10" fill="none" />
  
  <!-- Third pair of smaller developing leaves -->
  <path d="M 1920 900 C 1880 880, 1850 875, 1830 880" stroke="#228B22" stroke-width="10" fill="none" />
  <path d="M 1920 900 C 1960 880, 1990 875, 2010 880" stroke="#228B22" stroke-width="10" fill="none" />
  
  <!-- Small bulb at top -->
  <circle cx="1920" cy="790" r="25" fill="#228B22" />
  <path d="M 1910 780 C 1920 770, 1930 780, 1940 770" stroke="#006400" stroke-width="5" fill="none" />
  
  <!-- Soil lines/texture -->
  <path d="M 1700 1250 C 1750 1280, 1800 1270, 1850 1290" stroke="#6B3C10" stroke-width="5" fill="none" />
  <path d="M 1860 1340 C 1900 1360, 1950 1350, 2000 1380" stroke="#6B3C10" stroke-width="5" fill="none" />
  <path d="M 1800 1400 C 1850 1420, 1900 1410, 1950 1430" stroke="#6B3C10" stroke-width="5" fill="none" />
  <path d="M 1980 1270 C 2030 1290, 2080 1280, 2130 1300" stroke="#6B3C10" stroke-width="5" fill="none" />
  <path d="M 1750 1350 C 1800 1370, 1850 1360, 1900 1380" stroke="#6B3C10" stroke-width="5" fill="none" />
  
  <!-- Small grass blades in background -->
  <path d="M 800 1200 C 810 1150, 820 1170, 830 1130" stroke="#006400" stroke-width="8" fill="none" />
  <path d="M 850 1200 C 870 1160, 865 1140, 880 1120" stroke="#006400" stroke-width="8" fill="none" />
  <path d="M 2800 1200 C 2810 1150, 2820 1170, 2830 1130" stroke="#006400" stroke-width="8" fill="none" />
  <path d="M 2850 1200 C 2870 1160, 2865 1140, 2880 1120" stroke="#006400" stroke-width="8" fill="none" />
  <path d="M 3200 1200 C 3220 1150, 3210 1170, 3230 1120" stroke="#006400" stroke-width="8" fill="none" />
</svg>
