<svg xmlns="http://www.w3.org/2000/svg" viewBox="0 0 3840 2160" width="3840" height="2160">
  <!-- Sky background -->
  <rect x="0" y="0" width="3840" height="1200" fill="#87CEEB" />
  
  <!-- Sun -->
  <circle cx="600" cy="300" r="150" fill="#FFD700" stroke="#FF8C00" stroke-width="10" />
  <path d="M 600 120 L 600 50" stroke="#FF8C00" stroke-width="10" stroke-linecap="round" />
  <path d="M 600 550 L 600 480" stroke="#FF8C00" stroke-width="10" stroke-linecap="round" />
  <path d="M 420 300 L 350 300" stroke="#FF8C00" stroke-width="10" stroke-linecap="round" />
  <path d="M 850 300 L 780 300" stroke="#FF8C00" stroke-width="10" stroke-linecap="round" />
  <path d="M 480 180 L 430 130" stroke="#FF8C00" stroke-width="10" stroke-linecap="round" />
  <path d="M 770 470 L 720 420" stroke="#FF8C00" stroke-width="10" stroke-linecap="round" />
  <path d="M 480 420 L 430 470" stroke="#FF8C00" stroke-width="10" stroke-linecap="round" />
  <path d="M 770 180 L 720 130" stroke="#FF8C00" stroke-width="10" stroke-linecap="round" />
  
  <!-- Ground/Soil -->
  <rect x="0" y="1200" width="3840" height="960" fill="#8B4513" />
  <path d="M 0 1200 C 300 1150, 600 1250, 900 1190 C 1200 1130, 1500 1220, 1800 1170 C 2100 1120, 2400 1210, 2700 1160 C 3000 1110, 3300 1200, 3600 1150 L 3840 1200" fill="#A0522D" />
  
  <!-- Seed in soil -->
  <ellipse cx="1920" cy="1400" rx="40" ry="60" fill="#8B4513" stroke="#6B3C10" stroke-width="8" transform="rotate(-30, 1920, 1400)" />
  
  <!-- Soil lines/texture -->
  <path d="M 1700 1250 C 1750 1280, 1800 1270, 1850 1290" stroke="#6B3C10" stroke-width="5" fill="none" />
  <path d="M 1860 1340 C 1900 1360, 1950 1350, 2000 1380" stroke="#6B3C10" stroke-width="5" fill="none" />
  <path d="M 1800 1400 C 1850 1420, 1900 1410, 1950 1430" stroke="#6B3C10" stroke-width="5" fill="none" />
  <path d="M 1980 1270 C 2030 1290, 2080 1280, 2130 1300" stroke="#6B3C10" stroke-width="5" fill="none" />
  <path d="M 1750 1350 C 1800 1370, 1850 1360, 1900 1380" stroke="#6B3C10" stroke-width="5" fill="none" />
  
  <!-- Small grass blades in background -->
  <path d="M 800 1200 C 810 1150, 820 1170, 830 1130" stroke="#006400" stroke-width="8" fill="none" />
  <path d="M 850 1200 C 870 1160, 865 1140, 880 1120" stroke="#006400" stroke-width="8" fill="none" />
  <path d="M 2800 1200 C 2810 1150, 2820 1170, 2830 1130" stroke="#006400" stroke-width="8" fill="none" />
  <path d="M 2850 1200 C 2870 1160, 2865 1140, 2880 1120" stroke="#006400" stroke-width="8" fill="none" />
  <path d="M 3200 1200 C 3220 1150, 3210 1170, 3230 1120" stroke="#006400" stroke-width="8" fill="none" />
</svg>
