<svg xmlns="http://www.w3.org/2000/svg" viewBox="0 0 3840 2160" width="3840" height="2160">
  <!-- Sky background -->
  <rect x="0" y="0" width="3840" height="1200" fill="#87CEEB" />
  
  <!-- Sun -->
  <circle cx="1200" cy="300" r="150" fill="#FFD700" stroke="#FF8C00" stroke-width="10" />
  <path d="M 1200 120 L 1200 50" stroke="#FF8C00" stroke-width="10" stroke-linecap="round" />
  <path d="M 1200 550 L 1200 480" stroke="#FF8C00" stroke-width="10" stroke-linecap="round" />
  <path d="M 1020 300 L 950 300" stroke="#FF8C00" stroke-width="10" stroke-linecap="round" />
  <path d="M 1450 300 L 1380 300" stroke="#FF8C00" stroke-width="10" stroke-linecap="round" />
  <path d="M 1080 180 L 1030 130" stroke="#FF8C00" stroke-width="10" stroke-linecap="round" />
  <path d="M 1370 470 L 1320 420" stroke="#FF8C00" stroke-width="10" stroke-linecap="round" />
  <path d="M 1080 420 L 1030 470" stroke="#FF8C00" stroke-width="10" stroke-linecap="round" />
  <path d="M 1370 180 L 1320 130" stroke="#FF8C00" stroke-width="10" stroke-linecap="round" />
  
  <!-- Ground/Soil -->
  <rect x="0" y="1200" width="3840" height="960" fill="#8B4513" />
  <path d="M 0 1200 C 300 1150, 600 1250, 900 1190 C 1200 1130, 1500 1220, 1800 1170 C 2100 1120, 2400 1210, 2700 1160 C 3000 1110, 3300 1200, 3600 1150 L 3840 1200" fill="#A0522D" />
  
  <!-- Mature stem -->
  <path d="M 1920 1400 C 1925 1300, 1925 1200, 1930 1100 C 1935 1000, 1940 900, 1935 800 C 1930 700, 1925 600, 1920 500 C 1915 400, 1910 300, 1915 230" stroke="#228B22" stroke-width="30" fill="none" />
  
  <!-- Full-size leaves -->
  <path d="M 1925 1200 C 1780 1100, 1650 1050, 1540 1080" stroke="#228B22" stroke-width="20" fill="none" />
  <path d="M 1915 1200 C 2060 1100, 2190 1050, 2300 1080" stroke="#228B22" stroke-width="20" fill="none" />
  
  <!-- Vein details on leaves -->
  <path d="M 1780 1100 C 1720 1080, 1660 1070, 1600 1080" stroke="#006400" stroke-width="8" fill="none" />
  <path d="M 1730 1120 C 1680 1100, 1640 1090, 1610 1100" stroke="#006400" stroke-width="6" fill="none" />
  <path d="M 1830 1140 C 1780 1120, 1740 1110, 1710 1120" stroke="#006400" stroke-width="6" fill="none" />
  
  <path d="M 2060 1100 C 2120 1080, 2180 1070, 2240 1080" stroke="#006400" stroke-width="8" fill="none" />
  <path d="M 2110 1120 C 2160 1100, 2200 1090, 2230 1100" stroke="#006400" stroke-width="6" fill="none" />
  <path d="M 2010 1140 C 2060 1120, 2100 1110, 2130 1120" stroke="#006400" stroke-width="6" fill="none" />
  
  <!-- Second pair of leaves -->
  <path d="M 1930 950 C 1800 880, 1680 850, 1600 880" stroke="#228B22" stroke-width="20" fill="none" />
  <path d="M 1910 950 C 2040 880, 2160 850, 2240 880" stroke="#228B22" stroke-width="20" fill="none" />
  
  <!-- Third pair of leaves -->
  <path d="M 1925 750 C 1820 700, 1720 680, 1670 700" stroke="#228B22" stroke-width="18" fill="none" />
  <path d="M 1915 750 C 2020 700, 2120 680, 2170 700" stroke="#228B22" stroke-width="18" fill="none" />
  
  <!-- Fourth pair of leaves -->
  <path d="M 1920 600 C 1850 560, 1790 550, 1760 560" stroke="#228B22" stroke-width="15" fill="none" />
  <path d="M 1920 600 C 1990 560, 2050 550, 2080 560" stroke="#228B22" stroke-width="15" fill="none" />
  
  <!-- Fifth pair of leaves -->
  <path d="M 1920 450 C 1880 430, 1850 425, 1830 430" stroke="#228B22" stroke-width="12" fill="none" />
  <path d="M 1920 450 C 1960 430, 1990 425, 2010 430" stroke="#228B22" stroke-width="12" fill="none" />
  
  <!-- Beginning to open flower bud (green part) -->
  <circle cx="1915" cy="230" r="80" fill="#556B2F" />
  
  <!-- Green sepals spreading -->
  <path d="M 1845 270 C 1805 260, 1785 250, 1775 220" stroke="#228B22" stroke-width="10" fill="none" />
  <path d="M 1985 270 C 2025 260, 2045 250, 2055 220" stroke="#228B22" stroke-width="10" fill="none" />
  <path d="M 1875 170 C 1865 130, 1875 110, 1895 90" stroke="#228B22" stroke-width="10" fill="none" />
  <path d="M 1955 170 C 1965 130, 1955 110, 1935 90" stroke="#228B22" stroke-width="10" fill="none" />
  <path d="M 1845 190 C 1815 170, 1800 150, 1795 130" stroke="#228B22" stroke-width="10" fill="none" />
  <path d="M 1985 190 C 2015 170, 2030 150, 2035 130" stroke="#228B22" stroke-width="10" fill="none" />
  
  <!-- Yellow petals starting to emerge -->
  <path d="M 1880 220 L 1860 190" stroke="#FFD700" stroke-width="20" stroke-linecap="round" />
  <path d="M 1950 220 L 1970 190" stroke="#FFD700" stroke-width="20" stroke-linecap="round" />
  <path d="M 1900 190 L 1890 160" stroke="#FFD700" stroke-width="20" stroke-linecap="round" />
  <path d="M 1930 190 L 1940 160" stroke="#FFD700" stroke-width="20" stroke-linecap="round" />
  <path d="M 1915 200 L 1915 170" stroke="#FFD700" stroke-width="20" stroke-linecap="round" />
  
  <!-- Brown center starting to form -->
  <circle cx="1915" cy="230" r="30" fill="#8B4513" />
  
  <!-- Soil lines/texture -->
  <path d="M 1700 1250 C 1750 1280, 1800 1270, 1850 1290" stroke="#6B3C10" stroke-width="5" fill="none" />
  <path d="M 1860 1340 C 1900 1360, 1950 1350, 2000 1380" stroke="#6B3C10" stroke-width="5" fill="none" />
  <path d="M 1800 1400 C 1850 1420, 1900 1410, 1950 1430" stroke="#6B3C10" stroke-width="5" fill="none" />
  <path d="M 1980 1270 C 2030 1290, 2080 1280, 2130 1300" stroke="#6B3C10" stroke-width="5" fill="none" />
  <path d="M 1750 1350 C 1800 1370, 1850 1360, 1900 1380" stroke="#6B3C10" stroke-width="5" fill="none" />
  
  <!-- Small grass blades in background -->
  <path d="M 800 1200 C 810 1150, 820 1170, 830 1130" stroke="#006400" stroke-width="8" fill="none" />
  <path d="M 850 1200 C 870 1160, 865 1140, 880 1120" stroke="#006400" stroke-width="8" fill="none" />
  <path d="M 2800 1200 C 2810 1150, 2820 1170, 2830 1130" stroke="#006400" stroke-width="8" fill="none" />
  <path d="M 2850 1200 C 2870 1160, 2865 1140, 2880 1120" stroke="#006400" stroke-width="8" fill="none" />
  <path d="M 3200 1200 C 3220 1150, 3210 1170, 3230 1120" stroke="#006400" stroke-width="8" fill="none" />
</svg>
