<svg xmlns="http://www.w3.org/2000/svg" viewBox="0 0 3840 2160" width="3840" height="2160">
  <!-- Sky background -->
  <rect x="0" y="0" width="3840" height="1200" fill="#87CEEB" />
  
  <!-- Sun -->
  <circle cx="1100" cy="300" r="150" fill="#FFD700" stroke="#FF8C00" stroke-width="10" />
  <path d="M 1100 120 L 1100 50" stroke="#FF8C00" stroke-width="10" stroke-linecap="round" />
  <path d="M 1100 550 L 1100 480" stroke="#FF8C00" stroke-width="10" stroke-linecap="round" />
  <path d="M 920 300 L 850 300" stroke="#FF8C00" stroke-width="10" stroke-linecap="round" />
  <path d="M 1350 300 L 1280 300" stroke="#FF8C00" stroke-width="10" stroke-linecap="round" />
  <path d="M 980 180 L 930 130" stroke="#FF8C00" stroke-width="10" stroke-linecap="round" />
  <path d="M 1270 470 L 1220 420" stroke="#FF8C00" stroke-width="10" stroke-linecap="round" />
  <path d="M 980 420 L 930 470" stroke="#FF8C00" stroke-width="10" stroke-linecap="round" />
  <path d="M 1270 180 L 1220 130" stroke="#FF8C00" stroke-width="10" stroke-linecap="round" />
  
  <!-- Ground/Soil -->
  <rect x="0" y="1200" width="3840" height="960" fill="#8B4513" />
  <path d="M 0 1200 C 300 1150, 600 1250, 900 1190 C 1200 1130, 1500 1220, 1800 1170 C 2100 1120, 2400 1210, 2700 1160 C 3000 1110, 3300 1200, 3600 1150 L 3840 1200" fill="#A0522D" />
  
  <!-- Mature stem -->
  <path d="M 1920 1400 C 1925 1300, 1925 1200, 1930 1100 C 1935 1000, 1940 900, 1935 800 C 1930 700, 1925 600, 1920 500 C 1915 400, 1910 300, 1915 250" stroke="#228B22" stroke-width="30" fill="none" />
  
  <!-- Full-size leaves -->
  <path d="M 1925 1200 C 1780 1100, 1650 1050, 1540 1080" stroke="#228B22" stroke-width="20" fill="none" />
  <path d="M 1915 1200 C 2060 1100, 2190 1050, 2300 1080" stroke="#228B22" stroke-width="20" fill="none" />
  
  <!-- Vein details on leaves -->
  <path d="M 1780 1100 C 1720 1080, 1660 1070, 1600 1080" stroke="#006400" stroke-width="8" fill="none" />
  <path d="M 1730 1120 C 1680 1100, 1640 1090, 1610 1100" stroke="#006400" stroke-width="6" fill="none" />
  <path d="M 1830 1140 C 1780 1120, 1740 1110, 1710 1120" stroke="#006400" stroke-width="6" fill="none" />
  
  <path d="M 2060 1100 C 2120 1080, 2180 1070, 2240 1080" stroke="#006400" stroke-width="8" fill="none" />
  <path d="M 2110 1120 C 2160 1100, 2200 1090, 2230 1100" stroke="#006400" stroke-width="6" fill="none" />
  <path d="M 2010 1140 C 2060 1120, 2100 1110, 2130 1120" stroke="#006400" stroke-width="6" fill="none" />
  
  <!-- Second pair of leaves -->
  <path d="M 1930 950 C 1800 880, 1680 850, 1600 880" stroke="#228B22" stroke-width="20" fill="none" />
  <path d="M 1910 950 C 2040 880, 2160 850, 2240 880" stroke="#228B22" stroke-width="20" fill="none" />
  
  <!-- Vein details on second pair -->
  <path d="M 1800 880 C 1750 870, 1700 865, 1650 875" stroke="#006400" stroke-width="6" fill="none" />
  <path d="M 2040 880 C 2090 870, 2140 865, 2190 875" stroke="#006400" stroke-width="6" fill="none" />
  
  <!-- Third pair of leaves -->
  <path d="M 1925 750 C 1820 700, 1720 680, 1670 700" stroke="#228B22" stroke-width="18" fill="none" />
  <path d="M 1915 750 C 2020 700, 2120 680, 2170 700" stroke="#228B22" stroke-width="18" fill="none" />
  
  <!-- Fourth pair of developing leaves -->
  <path d="M 1920 600 C 1850 560, 1790 550, 1760 560" stroke="#228B22" stroke-width="15" fill="none" />
  <path d="M 1920 600 C 1990 560, 2050 550, 2080 560" stroke="#228B22" stroke-width="15" fill="none" />
  
  <!-- Fifth pair of small leaves near top -->
  <path d="M 1920 450 C 1880 430, 1850 425, 1830 430" stroke="#228B22" stroke-width="12" fill="none" />
  <path d="M 1920 450 C 1960 430, 1990 425, 2010 430" stroke="#228B22" stroke-width="12" fill="none" />
  
  <!-- Larger flower bud -->
  <circle cx="1915" cy="250" r="70" fill="#3A5F0B" />
  <path d="M 1915 310 C 1895 290, 1885 270, 1875 250 C 1865 230, 1875 210, 1895 200" stroke="#556B2F" stroke-width="5" fill="none" />
  <path d="M 1915 310 C 1935 290, 1945 270, 1955 250 C 1965 230, 1955 210, 1935 200" stroke="#556B2F" stroke-width="5" fill="none" />
  
  <!-- Hints of yellow starting to show at bottom of bud -->
  <path d="M 1890 300 L 1900 320" stroke="#FFD700" stroke-width="3" fill="none" />
  <path d="M 1940 300 L 1930 320" stroke="#FFD700" stroke-width="3" fill="none" />
  
  <!-- Small sepals forming -->
  <path d="M 1865 270 C 1845 265, 1835 260, 1830 250" stroke="#228B22" stroke-width="8" fill="none" />
  <path d="M 1965 270 C 1985 265, 1995 260, 2000 250" stroke="#228B22" stroke-width="8" fill="none" />
  <path d="M 1895 210 C 1890 190, 1895 180, 1905 170" stroke="#228B22" stroke-width="8" fill="none" />
  <path d="M 1935 210 C 1940 190, 1935 180, 1925 170" stroke="#228B22" stroke-width="8" fill="none" />
  
  <!-- Soil lines/texture -->
  <path d="M 1700 1250 C 1750 1280, 1800 1270, 1850 1290" stroke="#6B3C10" stroke-width="5" fill="none" />
  <path d="M 1860 1340 C 1900 1360, 1950 1350, 2000 1380" stroke="#6B3C10" stroke-width="5" fill="none" />
  <path d="M 1800 1400 C 1850 1420, 1900 1410, 1950 1430" stroke="#6B3C10" stroke-width="5" fill="none" />
  <path d="M 1980 1270 C 2030 1290, 2080 1280, 2130 1300" stroke="#6B3C10" stroke-width="5" fill="none" />
  <path d="M 1750 1350 C 1800 1370, 1850 1360, 1900 1380" stroke="#6B3C10" stroke-width="5" fill="none" />
  
  <!-- Small grass blades in background -->
  <path d="M 800 1200 C 810 1150, 820 1170, 830 1130" stroke="#006400" stroke-width="8" fill="none" />
  <path d="M 850 1200 C 870 1160, 865 1140, 880 1120" stroke="#006400" stroke-width="8" fill="none" />
  <path d="M 2800 1200 C 2810 1150, 2820 1170, 2830 1130" stroke="#006400" stroke-width="8" fill="none" />
  <path d="M 2850 1200 C 2870 1160, 2865 1140, 2880 1120" stroke="#006400" stroke-width="8" fill="none" />
  <path d="M 3200 1200 C 3220 1150, 3210 1170, 3230 1120" stroke="#006400" stroke-width="8" fill="none" />
</svg>
